<svg width="20" height="22" viewBox="0 0 20 22" fill="none" xmlns="http://www.w3.org/2000/svg">
<path d="M9.98769 21.8545C6.19952 21.8545 2.74364 19.7721 0.968485 16.4199L0.789062 16.0808L0.968485 15.742C1.97837 13.8345 3.60332 12.2656 5.54341 11.3243C6.23961 10.9869 7.05027 10.9918 7.76869 11.3368C8.46392 11.6711 9.21059 11.8406 9.98744 11.8406C10.7645 11.8406 11.5112 11.6711 12.2062 11.3368C12.9246 10.9915 13.7355 10.9869 14.4315 11.3243C16.3718 12.2656 17.9968 13.8348 19.0064 15.742C19.1936 16.0955 19.0588 16.5338 18.705 16.7212C18.3508 16.9091 17.913 16.7736 17.7258 16.4199C16.8589 14.7828 15.4646 13.4361 13.7988 12.6281C13.5032 12.4844 13.1514 12.4904 12.8338 12.643C11.9415 13.0717 10.9838 13.2892 9.98769 13.2892C8.99156 13.2892 8.03408 13.0717 7.14107 12.6426C6.82352 12.4897 6.47143 12.4841 6.17585 12.6276C4.62673 13.3791 3.31209 14.5966 2.43816 16.0808C4.0095 18.7584 6.86747 20.4056 9.98769 20.4056C10.6107 20.4056 11.233 20.3399 11.837 20.2099C12.2262 20.1252 12.6133 20.3746 12.6974 20.7661C12.7817 21.157 12.5324 21.5425 12.1412 21.6265C11.4376 21.7779 10.7131 21.8545 9.98769 21.8545Z" fill="#514B4B"/>
<path d="M9.98768 10.6851C7.07513 10.6851 4.70569 8.31538 4.70569 5.40284C4.70569 2.49029 7.07513 0.12085 9.98768 0.12085C12.9002 0.12085 15.2697 2.49029 15.2697 5.40284C15.2697 8.31538 12.9002 10.6851 9.98768 10.6851ZM9.98768 1.56976C7.8742 1.56976 6.15459 3.28937 6.15459 5.40284C6.15459 7.51655 7.8742 9.23616 9.98768 9.23616C12.1011 9.23616 13.8208 7.51655 13.8208 5.40284C13.8208 3.28937 12.1011 1.56976 9.98768 1.56976Z" fill="#514B4B"/>
<path d="M19.0356 19.5604C19.045 19.5379 19.0501 19.5142 19.0571 19.491C19.0636 19.4691 19.0721 19.4481 19.0766 19.4254C19.0858 19.3792 19.0907 19.3324 19.0907 19.2855C19.0907 19.2848 19.0909 19.2843 19.0909 19.2839C19.0909 19.2363 19.0858 19.1887 19.0766 19.1419C19.0723 19.1204 19.0643 19.1006 19.0583 19.0798C19.0511 19.0554 19.0455 19.0305 19.0356 19.0069C19.0252 18.9818 19.011 18.9591 18.9979 18.9354C18.9883 18.9178 18.9805 18.8994 18.9692 18.8825C18.9424 18.8424 18.912 18.805 18.8779 18.7709L17.0325 16.9255C16.7495 16.6425 16.2911 16.6425 16.0081 16.9255C15.7251 17.2083 15.7251 17.6671 16.0081 17.9499L16.6176 18.5594H14.7811C13.955 18.5594 13.2832 17.8876 13.2832 17.0615V16.0446C13.2832 15.6444 12.9589 15.3201 12.5587 15.3201C12.1586 15.3201 11.8343 15.6444 11.8343 16.0446V17.0615C11.8343 18.6864 13.1564 20.0083 14.7811 20.0083H16.6179L16.0081 20.6181C15.7251 20.9011 15.7251 21.3597 16.0081 21.6424C16.1496 21.7837 16.3348 21.8545 16.5203 21.8545C16.7058 21.8545 16.8912 21.7837 17.0325 21.6422L18.8779 19.7965C18.912 19.7625 18.9426 19.725 18.9694 19.6847C18.9801 19.6688 18.9871 19.6516 18.9965 19.6352C19.01 19.6106 19.0247 19.5867 19.0356 19.5604Z" fill="#514B4B"/>
</svg>
